<svg xmlns="http://www.w3.org/2000/svg" viewBox="0 0 16 16" id="Comment-Dots--Streamline-Font-Awesome" height="16" width="16"><desc>Comment Dots Streamline Icon: https://streamlinehq.com</desc><path d="M5.25625 12.028125c-0.46875 -0.16875 -0.990625 -0.096875 -1.39375 0.2 -0.25625 0.1875 -0.696875 0.4625 -1.23125 0.709375 0.175 -0.459375 0.309375 -0.978125 0.353125 -1.54375 0.03125 -0.403125 -0.103125 -0.803125 -0.36875 -1.109375C1.8875 9.4625 1.5 8.5 1.5 7.5c0 -2.484375 2.603125 -5 6.5 -5s6.5 2.515625 6.5 5 -2.603125 5 -6.5 5c-0.9875 0 -1.915625 -0.171875 -2.74375 -0.471875zM0.821875 13.24375c-0.05 0.084375 -0.103125 0.16875 -0.159375 0.253125l-0.009375 0.015625 -0.15 0.215625c-0.109375 0.146875 -0.228125 0.290625 -0.353125 0.421875 -0.14375 0.14375 -0.184375 0.35625 -0.10625 0.54375 0.078125 0.1875 0.259375 0.309375 0.4625 0.309375 0.159375 0 0.31875 -0.009375 0.478125 -0.025l0.021875 -0.003125c0.1375 -0.015625 0.275 -0.034375 0.4125 -0.059375 0.025 -0.003125 0.05 -0.009375 0.075 -0.015625 0.55625 -0.109375 1.090625 -0.296875 1.565625 -0.503125 0.715625 -0.3125 1.325 -0.684375 1.696875 -0.95625 0.99375 0.359375 2.09375 0.559375 3.253125 0.559375 4.41875 0 8 -2.909375 8 -6.5S12.41875 1 8 1 0 3.909375 0 7.5c0 1.409375 0.553125 2.7125 1.490625 3.778125 -0.059375 0.765625 -0.35625 1.446875 -0.66875 1.965625zM4.5 8.5a1 1 0 1 0 0 -2 1 1 0 1 0 0 2zm4.5 -1a1 1 0 1 0 -2 0 1 1 0 1 0 2 0zm2.5 1a1 1 0 1 0 0 -2 1 1 0 1 0 0 2z" fill="currentColor" stroke-width="0.0313"></path></svg>