<svg id="Couch-Furniture--Streamline-Atlas" xmlns="http://www.w3.org/2000/svg" viewBox="-1 -1 32 32" height="40" width="40"><desc>Couch Furniture Streamline Icon: https://streamlinehq.com</desc><defs></defs><path d="M15 10.25v7.1625000000000005H6.65V15a1.25 1.25 0 0 0 -1.25 -1.1875h-1.25V10.25a3.5875000000000004 3.5875000000000004 0 0 1 3.6875 -3.5749999999999997h3.5875000000000004A3.5875000000000004 3.5875000000000004 0 0 1 15 10.25Z" fill="none" stroke="#FFFFFF" stroke-miterlimit="10" stroke-width="2"></path><path d="M26.9375 13.8375h-2.3874999999999997a1.25 1.25 0 0 0 -1.25 1.1875v2.3874999999999997H6.65V15a1.25 1.25 0 0 0 -1.25 -1.1875H3.0625a1.25 1.25 0 0 0 -1.25 1.1875v7.1625000000000005h26.25V15a1.25 1.25 0 0 0 -1.125 -1.1625Z" fill="none" stroke="#FFFFFF" stroke-miterlimit="10" stroke-width="2"></path><path d="M25.7375 10.25v3.5875000000000004h-1.1875a1.25 1.25 0 0 0 -1.25 1.1875v2.3874999999999997H15V10.25a3.5875000000000004 3.5875000000000004 0 0 1 3.5749999999999997 -3.5749999999999997h3.5875000000000004a3.5875000000000004 3.5875000000000004 0 0 1 3.5749999999999997 3.5749999999999997Z" fill="none" stroke="#FFFFFF" stroke-miterlimit="10" stroke-width="2"></path><path d="m3.0625 24.575 0 -2.3874999999999997" fill="none" stroke="#FFFFFF" stroke-miterlimit="10" stroke-width="2"></path><path d="m25.7375 24.575 0 -2.3874999999999997" fill="none" stroke="#FFFFFF" stroke-miterlimit="10" stroke-width="2"></path></svg>