<svg id="Green-Gas--Streamline-Atlas" xmlns="http://www.w3.org/2000/svg" viewBox="-0.5 -0.5 16 16" height="40" width="40"><desc>Green Gas Streamline Icon: https://streamlinehq.com</desc><defs></defs><path d="M3.9187499999999997 0.9375h2.9812499999999997v2.3874999999999997H3.9187499999999997Z" fill="none" stroke="#FFFFFF" stroke-miterlimit="10" stroke-width="1"></path><path d="M12.275 2.725v10.14375a1.1937499999999999 1.1937499999999999 0 0 1 -1.1937499999999999 1.1937499999999999H3.9187499999999997a1.1937499999999999 1.1937499999999999 0 0 1 -1.1937499999999999 -1.1937499999999999V4.518750000000001a1.1937499999999999 1.1937499999999999 0 0 1 1.1937499999999999 -1.1937499999999999H8.125l0.84375 -1.25a1.1937499999999999 1.1937499999999999 0 0 1 0.99375 -0.53125h1.1500000000000001a1.2 1.2 0 0 1 1.1625 1.18125Z" fill="none" stroke="#FFFFFF" stroke-miterlimit="10" stroke-width="1"></path><path d="M8.125 3.325a2.05 2.05 0 0 0 1.44375 0.59375h2.7375" fill="none" stroke="#FFFFFF" stroke-miterlimit="10" stroke-width="1"></path><path d="M5.1125 6.30625h1.5375a2.6437500000000003 2.6437500000000003 0 0 1 2.6437500000000003 2.6437500000000003v1.5375h-1.5375a2.6437500000000003 2.6437500000000003 0 0 1 -2.6437500000000003 -2.6437500000000003v-1.5375Z" fill="none" stroke="#FFFFFF" stroke-miterlimit="10" stroke-width="1"></path><path d="m10.48125 11.675 -3.5749999999999997 -3.5812500000000003" fill="none" stroke="#FFFFFF" stroke-miterlimit="10" stroke-width="1"></path></svg>